<svg xmlns="http://www.w3.org/2000/svg" viewBox="0 0 608 338"><g fill="none" stroke-width="2"><path stroke="#8088c6" d="M404.68 135.55q.21 6.9.12 13.86c-.11 7.66 2.26 13.18 11.35 10.33q.55-.17.53-.75l-.1-2.8q-.02-.62-.59-.37c-4.4 1.93-6.44-.35-6.48-4.65q-.08-7.84.02-15.78.01-.57.58-.55l6.05.22q.75.03.66-.73l-.36-2.85q-.06-.49-.55-.49L410 131q-.5.01-.5-.5v-7.49a.55.55 0 0 0-.74-.51l-3.62 1.33q-.39.14-.39.55v6.12q0 .5-.5.5h-10.47q-.46 0-.48-.45c-.28-6.33-.77-11 7.24-9.47q.46.09.46-.38v-3.25q0-.66-.65-.76-8.6-1.39-11.31 5.93c-.86 2.33-.49 5.27-.57 7.89q-.01.57-.58.54l-3.82-.19q-.6-.04-.59.57l.07 3.04q.02.6.61.54l3.52-.33a.76.75-2.4 0 1 .82.75v23.82q0 .5.5.5h3.63q.63 0 .63-.63l-.04-23.79q0-.44.45-.44l10.48.14q.52 0 .53.52M253.35 121.49a3.02 3.02 0 0 0-3.02-3.02 3.02 3.02 0 0 0-3.02 3.02 3.02 3.02 0 0 0 3.02 3.02 3.02 3.02 0 0 0 3.02-3.02M71.31 211.64c10.83-10.25 31.16-15.76 45.71-17.04a1.62 1.62 0 0 0 1.48-1.61V120q0-.54-.52-.68l-1.59-.46q-.55-.16-.66.41c-5.96 31.94-25.38 63.48-47.77 86.88q-.31.31-.3.75l.13 6.88q.01.46.44.32 50.05-15.74 99.93.45a1.45 1.44-81 0 0 1.89-1.38l-.16-60.67a1.16 1.16 0 0 0-2-.8q-9.08 9.49-18.97 18.1-.42.36-.42.93v32.53a1.25 1.24 6.3 0 1-1.52 1.21q-36.51-8.11-70.86 5.78c-1.51.62-2.97.35-4.58 1.55q-1.86 1.38-.23-.16M234.83 126.75q.37 1.55.23 2.93c-1.01 9.5-.33 19.96-.3 29.56q0 .51.51.51h3.72q.5 0 .5-.49l.03-39.12q0-.64-.63-.64h-4.86q-.53 0-.75.48l-14.17 31.58q-.22.48-.43 0l-13.86-31.51q-.2-.47-.72-.49l-5.4-.2a.43.43 0 0 0-.45.43v39.46q0 .5.5.5h3.05q1.3 0 1.29-1.3l-.39-32.16q0-.16.06-.01l14.69 33a1.58 1.58 0 0 0 2.89 0l14.37-32.54q.07-.17.12.01" vector-effect="non-scaling-stroke"/><path stroke="#808099" d="M269.75 130.71q-7.44 1.54-10.38 8.4" vector-effect="non-scaling-stroke"/><path stroke="#8088c6" d="M259.37 139.11q-5.33 21.17 15.67 21.16 1.05 0 4.08-1.38.51-.24.56-.79l.28-3.28q.08-.89-.68-.42c-8.9 5.46-17.15-.34-16.33-10.3" vector-effect="non-scaling-stroke"/><path stroke="#808099" d="M262.95 144.1q1.21-9.2 10.05-9.89" vector-effect="non-scaling-stroke"/><path stroke="#8088c6" d="M273 134.21q3.58.07 6.52 2.03.48.32.48-.25v-3.72q0-.57-.53-.77-4.76-1.88-9.72-.79" vector-effect="non-scaling-stroke"/><path stroke="#000960" d="M273 134.21q-.35-1.26-1.75-1.28-1.11-.01-.13-.54l1.19-.64q.97-.52-.07-.86-1.21-.4-2.49-.18M262.95 144.1q-1.82-.92-.82-3.14.58-1.28-.81-1.46-.55-.07-.79.38-.24.46-.7.21-.44-.24-.46-.98" vector-effect="non-scaling-stroke"/><path stroke="#8088c6" d="M308.87 131.56c-14.39 6.06-8.78 33.5 10.15 28.5 12.9-3.41 14.02-24.57 2.12-28.86q-6.14-2.22-12.27.36M346.03 152.49c.37 6.38-9.83 3.6-12.64 1.45q-.64-.49-.61.32l.17 3.85q.03.66.63.93c5.26 2.34 13.66 2.21 16.46-3.77 3.79-8.09-5.84-11.1-10.84-13.77q-.45-.25-.69-.7c-3.87-7.39 6.52-7.4 10.35-4.75q.64.45.64-.33v-3.49q0-.61-.56-.83c-6.56-2.61-16.11-.71-15.79 7.99.31 8.49 12.53 7.01 12.88 13.1M381.959 143.272a12.79 12.79 0 0 0-12.678-12.9l-2.42-.022a12.79 12.79 0 0 0-12.901 12.678l-.039 4.42a12.79 12.79 0 0 0 12.678 12.9l2.42.022a12.79 12.79 0 0 0 12.901-12.678l.039-4.42" vector-effect="non-scaling-stroke"/><path stroke="#808099" d="m290.01 136.21.01-4.6q0-.52-.52-.55l-3.63-.21q-.58-.03-.58.55v24.35" vector-effect="non-scaling-stroke"/><path stroke="#8088c6" d="m285.29 155.75-.02 3.51q0 .49.49.49h3.53q.68 0 .68-.67l-.01-3.58" vector-effect="non-scaling-stroke"/><path stroke="#808099" d="M289.96 155.5q-.64-8.63 1.18-17.03" vector-effect="non-scaling-stroke"/><path stroke="#8088c6" d="M291.14 138.47q3.18-5.09 8.64-3.14.66.23.62-.47l-.21-3.72q-.04-.61-.64-.66-6.76-.63-9.54 5.73" vector-effect="non-scaling-stroke"/><path stroke="#000960" d="m291.14 138.47-1.13-2.26M289.96 155.5q-1.94-.06-3.47.91-.34.22-.62-.07l-.58-.59" vector-effect="non-scaling-stroke"/><path stroke="#8088c6" d="M252.5 131.35a.41.41 0 0 0-.41-.41h-3.92a.41.41 0 0 0-.41.41v28.04a.41.41 0 0 0 .41.41h3.92a.41.41 0 0 0 .41-.41v-28.04M120.25 195.04q0 .91-.9.97-22.44 1.65-42.18 12.03c-.46.24-3.06 1.33-2.65 2.04q.26.45.74.22c1.76-.88 3.48-2.09 5.18-2.75q30.49-11.85 62.8-5.21 1.69.34 3.05-.36.46-.23.46-.74v-64.87q0-.46-.45-.57l-1.25-.29q-.66-.16-.92.47-8.44 20.41-23.55 36.48-.33.35-.33.82v21.76M375.36 175.34a3.02 3.02 0 0 0-3.02-3.02 3.02 3.02 0 0 0-3.02 3.02 3.02 3.02 0 0 0 3.02 3.02 3.02 3.02 0 0 0 3.02-3.02M199.4 173.32q-.9.04-.9.94V213q0 .49.49.49c8.3.07 16.86 1.06 23.94-3.97 7.45-5.31 9.65-15.02 7.21-23.64-4.03-14.23-19.01-13.08-30.74-12.56M491.61 189.57a.32.32 0 0 1-.55-.01l-9.37-16.15a.32.32 0 0 0-.27-.16h-5.14a.32.32 0 0 0-.28.49l12.06 19.41a.32.32 0 0 1 0 .34l-12.91 19.42a.32.32 0 0 1-.56-.06l-15.21-39.4a.32.32 0 0 0-.3-.2h-4.52a.32.32 0 0 0-.3.21l-15.33 39.86a.32.32 0 0 0 .3.43h4.68a.32.32 0 0 0 .31-.21l3.87-10.87a.32.32 0 0 1 .3-.21l16.68-.06a.32.32 0 0 1 .3.21l4.24 10.94a.32.32 0 0 0 .3.2h10.36a.32.32 0 0 0 .27-.15l10.27-16.71a.32.32 0 0 1 .55 0l9.99 16.71a.32.32 0 0 0 .27.16l5.15-.02a.32.32 0 0 0 .27-.49l-12.64-19.8a.32.32 0 0 1 0-.34l12.34-19.37a.32.32 0 0 0-.27-.49h-4.77a.32.32 0 0 0-.27.15l-9.82 16.17M267.47 188.98l.35-3.53q.07-.7-.63-.7h-3.57q-.62 0-.62.63V213q0 .75.75.75h3.46q.54 0 .54-.54c0-5.15-1.2-16.97 1.22-21.21 3.61-6.3 13.1-4.83 13.24 3.26q.07 3.99.03 17.79 0 .7.7.7h3.34q.63 0 .64-.62.23-9.24.1-18.42c-.16-11.22-13.19-14.6-18.83-5.49q-.88 1.42-.72-.24" vector-effect="non-scaling-stroke"/><path stroke="#808099" d="M302.75 196.46q-7.2-.14-10.29 6.04" vector-effect="non-scaling-stroke"/><path stroke="#8088c6" d="M292.46 202.5c-3.98 11.56 10.52 15.71 16.97 7.31q.57-.75.57.19v3.12q0 .63.63.63h3.17q.68 0 .68-.68c.04-5.8 1.36-19.72-1.16-24.52-3.31-6.33-12.93-4.76-18.28-1.98q-.54.28-.54.88v3.51q0 .79.61.29c4.48-3.63 15.28-5.83 14.77 3.62q-.02.48-.5.55l-6.63 1.04" vector-effect="non-scaling-stroke"/><path stroke="#000960" d="M292.46 202.5q.26.91 1.29.76.57-.08.59.49.14 4.66 4.16 7.08.46.27.71-.2.16-.28.04-.84" vector-effect="non-scaling-stroke"/><path stroke="#8088c6" d="M299.25 209.79c7.06 2.32 11.64-3.59 10.59-10.18q-.08-.49-.57-.43l-6.73.82" vector-effect="non-scaling-stroke"/><path stroke="#000960" d="M302.54 200q.18-1.07 2.98-1.15a.66.65 73.2 0 0 .53-1q-1.13-1.78-3.3-1.39" vector-effect="non-scaling-stroke"/><path stroke="#808099" d="M302.54 200c-5.54.34-8.96 6.93-3.29 9.79M321.79 197.5l-.04 7.31" vector-effect="non-scaling-stroke"/><path stroke="#8088c6" d="m321.75 204.81.01 8.26q0 .68.68.68h3.37q.67 0 .67-.68l-.02-9.07" vector-effect="non-scaling-stroke"/><path stroke="#808099" d="M326.46 204v-7.5" vector-effect="non-scaling-stroke"/><path stroke="#8088c6" d="M326.46 196.5q.19-3.42 1.62-5.44c2.7-3.8 8.46-4.17 10.76.18 2.35 4.46 1.18 16.57 1.14 21.94q0 .57.57.57h3.51q.7 0 .7-.7c-.02-5.46-1.13-16.13.98-20.8 2.86-6.35 12.2-5.48 12.23 2.75q.03 8.99.03 18.06 0 .69.7.69h3.61q.7 0 .68-.7-.24-8.16-.3-16.28c-.04-5.69-.91-11.06-6.73-12.46q-7.56-1.81-11.95 5.19-.41.66-.72-.06c-3.08-7.3-12.2-6.78-16.18-.75q-.61.92-.61-.19v-3.25q0-.5-.5-.5h-3.74q-.49 0-.49.5l.02 12.25" vector-effect="non-scaling-stroke"/><path stroke="#000960" d="M326.46 196.5q-2.81-1.02-2.07-4.23.23-1.01-.47-.24-.53.58-.41 1.29.09.51-.14.97l-1.58 3.21M326.46 204q-2.1 3.01-4.71.81" vector-effect="non-scaling-stroke"/><path stroke="#8088c6" d="M381.46 193.5c-5.18 13.36 6.12 25.33 19.79 19.18q1.26-.57.58-1.99-.22-.47-.05-.96l.43-1.18q.42-1.17-.62-.5-8.82 5.66-15.05-2.05" vector-effect="non-scaling-stroke"/><path stroke="#808099" d="M386.54 206c-4.33-8.47.05-19.22 10.96-17.71" vector-effect="non-scaling-stroke"/><path stroke="#8088c6" d="m397.5 188.29 4.09 1.72q.57.24.54-.37l-.14-3.45q-.02-.48-.43-.72-2.56-1.48-5.56-1.18" vector-effect="non-scaling-stroke"/><path stroke="#808099" d="M396 184.29q-10.82-.64-14.54 9.21" vector-effect="non-scaling-stroke"/><path stroke="#000960" d="M396 184.29q2.29 1.56 1.5 4M386.54 206l-.07 1.25q-.06 1.2-.82.26l-2.78-3.44q-.32-.39-.32-.88-.02-4.9-1.09-9.69" vector-effect="non-scaling-stroke"/><path stroke="#8088c6" d="M415.22 202.46c3.55 1.95 4.78 6.85-.26 7.7q-5.04.85-9.09-2.2-.63-.48-.63.31l.02 3.83q.01.57.54.8c6.62 2.8 19.72 1.22 16.93-9.26-1.5-5.59-16.82-8.04-11.74-13.87 2.36-2.69 7.35-1.64 10.06-.12q.7.39.7-.41v-3.29q0-.63-.6-.83c-6.42-2.23-15.4-.78-15.71 7.42-.23 6 5.65 7.65 9.78 9.92M245.73 208.44l-8.02-23.06q-.22-.63-.89-.63h-3.8q-.77 0-.49.72l10.79 27.44q.16.43.03.86c-1.31 4.54-3.77 10.95-9.44 9.01q-.61-.22-.61.43l.03 3.08q.01.54.53.66c7.97 1.89 11.05-5.33 13.49-11.35q6.11-15.06 12.03-30.24.24-.61-.41-.61h-3.57q-.66 0-.89.62l-8.37 23.07q-.21.58-.41 0M374.52 185.19a.43.43 0 0 0-.43-.43h-3.66a.43.43 0 0 0-.43.43v28.12a.43.43 0 0 0 .43.43h3.66a.43.43 0 0 0 .43-.43v-28.12M324.428 143.015a8.49 8.49 0 0 0-8.356-8.622l-1.48-.023a8.49 8.49 0 0 0-8.622 8.355l-.078 4.98a8.49 8.49 0 0 0 8.356 8.622l1.48.023a8.49 8.49 0 0 0 8.622-8.355l.078-4.98M377.32 143.021a8.52 8.52 0 0 0-8.445-8.594l-1.52-.013a8.52 8.52 0 0 0-8.594 8.445l-.042 4.84a8.52 8.52 0 0 0 8.446 8.594l1.52.013a8.52 8.52 0 0 0 8.594-8.445l.042-4.84M203.28 178.02l-.06 30.52a.56.56 0 0 0 .56.56l7.59.01a14.59 14.11.1 0 0 14.62-14.08v-3.42a14.59 14.11.1 0 0-14.56-14.14l-7.59-.01a.56.56 0 0 0-.56.56M449.98 197.64a.31.31 0 0 0 .29.42l13-.08a.31.31 0 0 0 .29-.41l-6.57-17.83a.31.31 0 0 0-.58 0l-6.43 17.9" vector-effect="non-scaling-stroke"/></g><path fill="#fff" d="M0 0h608v338H0V0Zm404.68 135.55q.21 6.9.12 13.86c-.11 7.66 2.26 13.18 11.35 10.33q.55-.17.53-.75l-.1-2.8q-.02-.62-.59-.37c-4.4 1.93-6.44-.35-6.48-4.65q-.08-7.84.02-15.78.01-.57.58-.55l6.05.22q.75.03.66-.73l-.36-2.85q-.06-.49-.55-.49L410 131q-.5.01-.5-.5v-7.49a.55.55 0 0 0-.74-.51l-3.62 1.33q-.39.14-.39.55v6.12q0 .5-.5.5h-10.47q-.46 0-.48-.45c-.28-6.33-.77-11 7.24-9.47q.46.09.46-.38v-3.25q0-.66-.65-.76-8.6-1.39-11.31 5.93c-.86 2.33-.49 5.27-.57 7.89q-.01.57-.58.54l-3.82-.19q-.6-.04-.59.57l.07 3.04q.02.6.61.54l3.52-.33a.76.75-2.4 0 1 .82.75v23.82q0 .5.5.5h3.63q.63 0 .63-.63l-.04-23.79q0-.44.45-.44l10.48.14q.52 0 .53.52Zm-151.33-14.06a3.02 3.02 0 0 0-3.02-3.02 3.02 3.02 0 0 0-3.02 3.02 3.02 3.02 0 0 0 3.02 3.02 3.02 3.02 0 0 0 3.02-3.02ZM71.31 211.64c10.83-10.25 31.16-15.76 45.71-17.04a1.62 1.62 0 0 0 1.48-1.61V120q0-.54-.52-.68l-1.59-.46q-.55-.16-.66.41c-5.96 31.94-25.38 63.48-47.77 86.88q-.31.31-.3.75l.13 6.88q.01.46.44.32 50.05-15.74 99.93.45a1.45 1.44-81 0 0 1.89-1.38l-.16-60.67a1.16 1.16 0 0 0-2-.8q-9.08 9.49-18.97 18.1-.42.36-.42.93v32.53a1.25 1.24 6.3 0 1-1.52 1.21q-36.51-8.11-70.86 5.78c-1.51.62-2.97.35-4.58 1.55q-1.86 1.38-.23-.16Zm163.52-84.89q.37 1.55.23 2.93c-1.01 9.5-.33 19.96-.3 29.56q0 .51.51.51h3.72q.5 0 .5-.49l.03-39.12q0-.64-.63-.64h-4.86q-.53 0-.75.48l-14.17 31.58q-.22.48-.43 0l-13.86-31.51q-.2-.47-.72-.49l-5.4-.2a.43.43 0 0 0-.45.43v39.46q0 .5.5.5h3.05q1.3 0 1.29-1.3l-.39-32.16q0-.16.06-.01l14.69 33a1.58 1.58 0 0 0 2.89 0l14.37-32.54q.07-.17.12.01Zm34.92 3.96q-7.44 1.54-10.38 8.4-5.33 21.17 15.67 21.16 1.05 0 4.08-1.38.51-.24.56-.79l.28-3.28q.08-.89-.68-.42c-8.9 5.46-17.15-.34-16.33-10.3q1.21-9.2 10.05-9.89 3.58.07 6.52 2.03.48.32.48-.25v-3.72q0-.57-.53-.77-4.76-1.88-9.72-.79Zm39.12.85c-14.39 6.06-8.78 33.5 10.15 28.5 12.9-3.41 14.02-24.57 2.12-28.86q-6.14-2.22-12.27.36Zm37.16 20.93c.37 6.38-9.83 3.6-12.64 1.45q-.64-.49-.61.32l.17 3.85q.03.66.63.93c5.26 2.34 13.66 2.21 16.46-3.77 3.79-8.09-5.84-11.1-10.84-13.77q-.45-.25-.69-.7c-3.87-7.39 6.52-7.4 10.35-4.75q.64.45.64-.33v-3.49q0-.61-.56-.83c-6.56-2.61-16.11-.71-15.79 7.99.31 8.49 12.53 7.01 12.88 13.1Zm35.929-9.218a12.79 12.79 0 0 0-12.678-12.9l-2.42-.022a12.79 12.79 0 0 0-12.901 12.678l-.039 4.42a12.79 12.79 0 0 0 12.678 12.9l2.42.022a12.79 12.79 0 0 0 12.901-12.678l.039-4.42Zm-91.949-7.062.01-4.6q0-.52-.52-.55l-3.63-.21q-.58-.03-.58.55v24.35l-.02 3.51q0 .49.49.49h3.53q.68 0 .68-.67l-.01-3.58q-.64-8.63 1.18-17.03 3.18-5.09 8.64-3.14.66.23.62-.47l-.21-3.72q-.04-.61-.64-.66-6.76-.63-9.54 5.73Zm-37.51-4.86a.41.41 0 0 0-.41-.41h-3.92a.41.41 0 0 0-.41.41v28.04a.41.41 0 0 0 .41.41h3.92a.41.41 0 0 0 .41-.41v-28.04Zm-132.25 63.69q0 .91-.9.97-22.44 1.65-42.18 12.03c-.46.24-3.06 1.33-2.65 2.04q.26.45.74.22c1.76-.88 3.48-2.09 5.18-2.75q30.49-11.85 62.8-5.21 1.69.34 3.05-.36.46-.23.46-.74v-64.87q0-.46-.45-.57l-1.25-.29q-.66-.16-.92.47-8.44 20.41-23.55 36.48-.33.35-.33.82v21.76Zm255.11-19.7a3.02 3.02 0 0 0-3.02-3.02 3.02 3.02 0 0 0-3.02 3.02 3.02 3.02 0 0 0 3.02 3.02 3.02 3.02 0 0 0 3.02-3.02Zm-175.96-2.02q-.9.04-.9.94V213q0 .49.49.49c8.3.07 16.86 1.06 23.94-3.97 7.45-5.31 9.65-15.02 7.21-23.64-4.03-14.23-19.01-13.08-30.74-12.56Zm292.21 16.25a.32.32 0 0 1-.55-.01l-9.37-16.15a.32.32 0 0 0-.27-.16h-5.14a.32.32 0 0 0-.28.49l12.06 19.41a.32.32 0 0 1 0 .34l-12.91 19.42a.32.32 0 0 1-.56-.06l-15.21-39.4a.32.32 0 0 0-.3-.2h-4.52a.32.32 0 0 0-.3.21l-15.33 39.86a.32.32 0 0 0 .3.43h4.68a.32.32 0 0 0 .31-.21l3.87-10.87a.32.32 0 0 1 .3-.21l16.68-.06a.32.32 0 0 1 .3.21l4.24 10.94a.32.32 0 0 0 .3.2h10.36a.32.32 0 0 0 .27-.15l10.27-16.71a.32.32 0 0 1 .55 0l9.99 16.71a.32.32 0 0 0 .27.16l5.15-.02a.32.32 0 0 0 .27-.49l-12.64-19.8a.32.32 0 0 1 0-.34l12.34-19.37a.32.32 0 0 0-.27-.49h-4.77a.32.32 0 0 0-.27.15l-9.82 16.17Zm-224.14-.59.35-3.53q.07-.7-.63-.7h-3.57q-.62 0-.62.63V213q0 .75.75.75h3.46q.54 0 .54-.54c0-5.15-1.2-16.97 1.22-21.21 3.61-6.3 13.1-4.83 13.24 3.26q.07 3.99.03 17.79 0 .7.7.7h3.34q.63 0 .64-.62.23-9.24.1-18.42c-.16-11.22-13.19-14.6-18.83-5.49q-.88 1.42-.72-.24Zm35.28 7.48q-7.2-.14-10.29 6.04c-3.98 11.56 10.52 15.71 16.97 7.31q.57-.75.57.19v3.12q0 .63.63.63h3.17q.68 0 .68-.68c.04-5.8 1.36-19.72-1.16-24.52-3.31-6.33-12.93-4.76-18.28-1.98q-.54.28-.54.88v3.51q0 .79.61.29c4.48-3.63 15.28-5.83 14.77 3.62q-.02.48-.5.55l-6.63 1.04Zm19.04 1.04-.04 7.31.01 8.26q0 .68.68.68h3.37q.67 0 .67-.68l-.02-9.07v-7.5q.19-3.42 1.62-5.44c2.7-3.8 8.46-4.17 10.76.18 2.35 4.46 1.18 16.57 1.14 21.94q0 .57.57.57h3.51q.7 0 .7-.7c-.02-5.46-1.13-16.13.98-20.8 2.86-6.35 12.2-5.48 12.23 2.75q.03 8.99.03 18.06 0 .69.7.69h3.61q.7 0 .68-.7-.24-8.16-.3-16.28c-.04-5.69-.91-11.06-6.73-12.46q-7.56-1.81-11.95 5.19-.41.66-.72-.06c-3.08-7.3-12.2-6.78-16.18-.75q-.61.92-.61-.19v-3.25q0-.5-.5-.5h-3.74q-.49 0-.49.5l.02 12.25Zm59.67-4c-5.18 13.36 6.12 25.33 19.79 19.18q1.26-.57.58-1.99-.22-.47-.05-.96l.43-1.18q.42-1.17-.62-.5-8.82 5.66-15.05-2.05c-4.33-8.47.05-19.22 10.96-17.71l4.09 1.72q.57.24.54-.37l-.14-3.45q-.02-.48-.43-.72-2.56-1.48-5.56-1.18-10.82-.64-14.54 9.21Zm33.76 8.96c3.55 1.95 4.78 6.85-.26 7.7q-5.04.85-9.09-2.2-.63-.48-.63.31l.02 3.83q.01.57.54.8c6.62 2.8 19.72 1.22 16.93-9.26-1.5-5.59-16.82-8.04-11.74-13.87 2.36-2.69 7.35-1.64 10.06-.12q.7.39.7-.41v-3.29q0-.63-.6-.83c-6.42-2.23-15.4-.78-15.71 7.42-.23 6 5.65 7.65 9.78 9.92Zm-169.49 5.98-8.02-23.06q-.22-.63-.89-.63h-3.8q-.77 0-.49.72l10.79 27.44q.16.43.03.86c-1.31 4.54-3.77 10.95-9.44 9.01q-.61-.22-.61.43l.03 3.08q.01.54.53.66c7.97 1.89 11.05-5.33 13.49-11.35q6.11-15.06 12.03-30.24.24-.61-.41-.61h-3.57q-.66 0-.89.62l-8.37 23.07q-.21.58-.41 0Zm128.79-23.25a.43.43 0 0 0-.43-.43h-3.66a.43.43 0 0 0-.43.43v28.12a.43.43 0 0 0 .43.43h3.66a.43.43 0 0 0 .43-.43v-28.12Z"/><path fill="#00118d" d="m404.15 135.03-10.48-.14q-.45 0-.45.44l.04 23.79q0 .63-.63.63H389q-.5 0-.5-.5v-23.82a.76.75-2.4 0 0-.82-.75l-3.52.33q-.59.06-.61-.54l-.07-3.04q-.01-.61.59-.57l3.82.19q.57.03.58-.54c.08-2.62-.29-5.56.57-7.89q2.71-7.32 11.31-5.93.65.1.65.76v3.25q0 .47-.46.38c-8.01-1.53-7.52 3.14-7.24 9.47q.02.45.48.45h10.47q.5 0 .5-.5v-6.12q0-.41.39-.55l3.62-1.33a.55.55 0 0 1 .74.51v7.49q0 .51.5.5l5.91-.01q.49 0 .55.49l.36 2.85q.09.76-.66.73l-6.05-.22q-.57-.02-.58.55-.1 7.94-.02 15.78c.04 4.3 2.08 6.58 6.48 4.65q.57-.25.59.37l.1 2.8q.02.58-.53.75c-9.09 2.85-11.46-2.67-11.35-10.33q.09-6.96-.12-13.86-.01-.52-.53-.52Z"/><circle cx="250.33" cy="121.49" r="3.02" fill="#00118d"/><path fill="#00118d" d="M71.54 211.8c1.61-1.2 3.07-.93 4.58-1.55q34.35-13.89 70.86-5.78a1.25 1.24 6.3 0 0 1.52-1.21v-32.53q0-.57.42-.93 9.89-8.61 18.97-18.1a1.16 1.16 0 0 1 2 .8l.16 60.67a1.45 1.44-81 0 1-1.89 1.38q-49.88-16.19-99.93-.45-.43.14-.44-.32l-.13-6.88q-.01-.44.3-.75c22.39-23.4 41.81-54.94 47.77-86.88q.11-.57.66-.41l1.59.46q.52.14.52.68v72.99a1.62 1.62 0 0 1-1.48 1.61c-14.55 1.28-34.88 6.79-45.71 17.04q-1.63 1.54.23.16ZM234.71 126.74l-14.37 32.54a1.58 1.58 0 0 1-2.89 0l-14.69-33q-.06-.15-.06.01l.39 32.16q.01 1.3-1.29 1.3h-3.05q-.5 0-.5-.5v-39.46a.43.43 0 0 1 .45-.43l5.4.2q.52.02.72.49l13.86 31.51q.21.48.43 0l14.17-31.58q.22-.48.75-.48h4.86q.63 0 .63.64l-.03 39.12q0 .49-.5.49h-3.72q-.51 0-.51-.51c-.03-9.6-.71-20.06.3-29.56q.14-1.38-.23-2.93-.05-.18-.12-.01ZM273 134.21q-.35-1.26-1.75-1.28-1.11-.01-.13-.54l1.19-.64q.97-.52-.07-.86-1.21-.4-2.49-.18 4.96-1.09 9.72.79.53.2.53.77v3.72q0 .57-.48.25-2.94-1.96-6.52-2.03ZM319.02 160.06c-18.93 5-24.54-22.44-10.15-28.5q6.13-2.58 12.27-.36c11.9 4.29 10.78 25.45-2.12 28.86Zm5.408-17.045a8.49 8.49 0 0 0-8.356-8.622l-1.48-.023a8.49 8.49 0 0 0-8.622 8.355l-.078 4.98a8.49 8.49 0 0 0 8.356 8.622l1.48.023a8.49 8.49 0 0 0 8.622-8.355l.078-4.98ZM333.39 153.94c2.81 2.15 13.01 4.93 12.64-1.45-.35-6.09-12.57-4.61-12.88-13.1-.32-8.7 9.23-10.6 15.79-7.99q.56.22.56.83v3.49q0 .78-.64.33c-3.83-2.65-14.22-2.64-10.35 4.75q.24.45.69.7c5 2.67 14.63 5.68 10.84 13.77-2.8 5.98-11.2 6.11-16.46 3.77q-.6-.27-.63-.93l-.17-3.85q-.03-.81.61-.32ZM381.92 147.692a12.79 12.79 0 0 1-12.9 12.678l-2.42-.021a12.79 12.79 0 0 1-12.679-12.901l.039-4.42a12.79 12.79 0 0 1 12.9-12.678l2.42.021a12.79 12.79 0 0 1 12.679 12.901l-.039 4.42Zm-4.6-4.67a8.52 8.52 0 0 0-8.445-8.595l-1.52-.013a8.52 8.52 0 0 0-8.594 8.445l-.042 4.84a8.52 8.52 0 0 0 8.446 8.594l1.52.013a8.52 8.52 0 0 0 8.594-8.445l.042-4.84ZM291.14 138.47l-1.13-2.26q2.78-6.36 9.54-5.73.6.05.64.66l.21 3.72q.04.7-.62.47-5.46-1.95-8.64 3.14Z"/><rect width="4.74" height="28.86" x="247.76" y="130.94" fill="#00118d" rx=".41"/><path fill="#003" d="M269.75 130.71q1.28-.22 2.49.18 1.04.34.07.86l-1.19.64q-.98.53.13.54 1.4.02 1.75 1.28-8.84.69-10.05 9.89-1.82-.92-.82-3.14.58-1.28-.81-1.46-.55-.07-.79.38-.24.46-.7.21-.44-.24-.46-.98 2.94-6.86 10.38-8.4ZM290.01 136.21l1.13 2.26q-1.82 8.4-1.18 17.03-1.94-.06-3.47.91-.34.22-.62-.07l-.58-.59V131.4q0-.58.58-.55l3.63.21q.52.03.52.55l-.01 4.6Z"/><rect width="18.46" height="21.96" x="-9.23" y="-10.98" fill="#fff" rx="8.49" transform="rotate(.9 -9096.135 20135.976)"/><rect width="18.56" height="21.88" x="-9.28" y="-10.94" fill="#fff" rx="8.52" transform="rotate(.5 -16472.913 42244.398)"/><path fill="#00118d" d="M120.25 195.04v-21.76q0-.47.33-.82 15.11-16.07 23.55-36.48.26-.63.92-.47l1.25.29q.45.11.45.57v64.87q0 .51-.46.74-1.36.7-3.05.36-32.31-6.64-62.8 5.21c-1.7.66-3.42 1.87-5.18 2.75q-.48.23-.74-.22c-.41-.71 2.19-1.8 2.65-2.04q19.74-10.38 42.18-12.03.9-.06.9-.97ZM259.37 139.11q.02.74.46.98.46.25.7-.21.24-.45.79-.38 1.39.18.81 1.46-1 2.22.82 3.14c-.82 9.96 7.43 15.76 16.33 10.3q.76-.47.68.42l-.28 3.28q-.05.55-.56.79-3.03 1.38-4.08 1.38-21 .01-15.67-21.16ZM289.96 155.5l.01 3.58q0 .67-.68.67h-3.53q-.49 0-.49-.49l.02-3.51.58.59q.28.29.62.07 1.53-.97 3.47-.91Z"/><circle cx="372.34" cy="175.34" r="3.02" fill="#00118d"/><path fill="#00118d" d="M199.4 173.32c11.73-.52 26.71-1.67 30.74 12.56 2.44 8.62.24 18.33-7.21 23.64-7.08 5.03-15.64 4.04-23.94 3.97q-.49 0-.49-.49v-38.74q0-.9.9-.94Zm3.88 4.7-.06 30.52a.56.56 0 0 0 .56.56l7.59.01a14.59 14.11.1 0 0 14.62-14.08v-3.42a14.59 14.11.1 0 0-14.56-14.14l-7.59-.01a.56.56 0 0 0-.56.56ZM491.61 189.57l9.82-16.17a.32.32 0 0 1 .27-.15h4.77a.32.32 0 0 1 .27.49l-12.34 19.37a.32.32 0 0 0 0 .34l12.64 19.8a.32.32 0 0 1-.27.49l-5.15.02a.32.32 0 0 1-.27-.16l-9.99-16.71a.32.32 0 0 0-.55 0l-10.27 16.71a.32.32 0 0 1-.27.15h-10.36a.32.32 0 0 1-.3-.2l-4.24-10.94a.32.32 0 0 0-.3-.21l-16.68.06a.32.32 0 0 0-.3.21l-3.87 10.87a.32.32 0 0 1-.31.21h-4.68a.32.32 0 0 1-.3-.43l15.33-39.86a.32.32 0 0 1 .3-.21h4.52a.32.32 0 0 1 .3.2l15.21 39.4a.32.32 0 0 0 .56.06l12.91-19.42a.32.32 0 0 0 0-.34L476 173.74a.32.32 0 0 1 .28-.49h5.14a.32.32 0 0 1 .27.16l9.37 16.15a.32.32 0 0 0 .55.01Zm-41.63 8.07a.31.31 0 0 0 .29.42l13-.08a.31.31 0 0 0 .29-.41l-6.57-17.83a.31.31 0 0 0-.58 0l-6.43 17.9Z"/><path fill="#fff" d="M203.28 178.02a.56.56 0 0 1 .56-.56l7.59.01a14.59 14.11.1 0 1 14.56 14.14v3.42a14.59 14.11.1 0 1-14.62 14.08l-7.59-.01a.56.56 0 0 1-.56-.56l.06-30.52ZM449.98 197.64l6.43-17.9a.31.31 0 0 1 .58 0l6.57 17.83a.31.31 0 0 1-.29.41l-13 .08a.31.31 0 0 1-.29-.42Z"/><path fill="#00118d" d="M268.19 189.22c5.64-9.11 18.67-5.73 18.83 5.49q.13 9.18-.1 18.42-.01.62-.64.62h-3.34q-.7 0-.7-.7.04-13.8-.03-17.79c-.14-8.09-9.63-9.56-13.24-3.26-2.42 4.24-1.22 16.06-1.22 21.21q0 .54-.54.54h-3.46q-.75 0-.75-.75v-27.62q0-.63.62-.63h3.57q.7 0 .63.7l-.35 3.53q-.16 1.66.72.24ZM292.46 202.5q.26.91 1.29.76.57-.08.59.49.14 4.66 4.16 7.08.46.27.71-.2.16-.28.04-.84c7.06 2.32 11.64-3.59 10.59-10.18q-.08-.49-.57-.43l-6.73.82q.18-1.07 2.98-1.15a.66.65 73.2 0 0 .53-1q-1.13-1.78-3.3-1.39l6.63-1.04q.48-.07.5-.55c.51-9.45-10.29-7.25-14.77-3.62q-.61.5-.61-.29v-3.51q0-.6.54-.88c5.35-2.78 14.97-4.35 18.28 1.98 2.52 4.8 1.2 18.72 1.16 24.52q0 .68-.68.68h-3.17q-.63 0-.63-.63V210q0-.94-.57-.19c-6.45 8.4-20.95 4.25-16.97-7.31ZM326.46 196.5q-2.81-1.02-2.07-4.23.23-1.01-.47-.24-.53.58-.41 1.29.09.51-.14.97l-1.58 3.21-.02-12.25q0-.5.49-.5H326q.5 0 .5.5v3.25q0 1.11.61.19c3.98-6.03 13.1-6.55 16.18.75q.31.72.72.06 4.39-7 11.95-5.19c5.82 1.4 6.69 6.77 6.73 12.46q.06 8.12.3 16.28.02.7-.68.7h-3.61q-.7 0-.7-.69 0-9.07-.03-18.06c-.03-8.23-9.37-9.1-12.23-2.75-2.11 4.67-1 15.34-.98 20.8q0 .7-.7.7h-3.51q-.57 0-.57-.57c.04-5.37 1.21-17.48-1.14-21.94-2.3-4.35-8.06-3.98-10.76-.18q-1.43 2.02-1.62 5.44Z"/><path fill="#003" d="M396 184.29q2.29 1.56 1.5 4c-10.91-1.51-15.29 9.24-10.96 17.71l-.07 1.25q-.06 1.2-.82.26l-2.78-3.44q-.32-.39-.32-.88-.02-4.9-1.09-9.69 3.72-9.85 14.54-9.21Z"/><path fill="#00118d" d="M396 184.29q3-.3 5.56 1.18.41.24.43.72l.14 3.45q.03.61-.54.37l-4.09-1.72q.79-2.44-1.5-4ZM414.96 210.16c5.04-.85 3.81-5.75.26-7.7-4.13-2.27-10.01-3.92-9.78-9.92.31-8.2 9.29-9.65 15.71-7.42q.6.2.6.83v3.29q0 .8-.7.41c-2.71-1.52-7.7-2.57-10.06.12-5.08 5.83 10.24 8.28 11.74 13.87 2.79 10.48-10.31 12.06-16.93 9.26q-.53-.23-.54-.8l-.02-3.83q0-.79.63-.31 4.05 3.05 9.09 2.2ZM246.14 208.44l8.37-23.07q.23-.62.89-.62h3.57q.65 0 .41.61-5.92 15.18-12.03 30.24c-2.44 6.02-5.52 13.24-13.49 11.35q-.52-.12-.53-.66l-.03-3.08q0-.65.61-.43c5.67 1.94 8.13-4.47 9.44-9.01q.13-.43-.03-.86l-10.79-27.44q-.28-.72.49-.72h3.8q.67 0 .89.63l8.02 23.06q.2.58.41 0Z"/><rect width="4.52" height="28.98" x="370" y="184.76" fill="#00118d" rx=".43"/><path fill="#003" d="M326.46 196.5v7.5q-2.1 3.01-4.71.81l.04-7.31 1.58-3.21q.23-.46.14-.97-.12-.71.41-1.29.7-.77.47.24-.74 3.21 2.07 4.23Z"/><path fill="#00118d" d="M381.46 193.5q1.07 4.79 1.09 9.69 0 .49.32.88l2.78 3.44q.76.94.82-.26l.07-1.25q6.23 7.71 15.05 2.05 1.04-.67.62.5l-.43 1.18q-.17.49.05.96.68 1.42-.58 1.99c-13.67 6.15-24.97-5.82-19.79-19.18Z"/><path fill="#003" d="M302.75 196.46q2.17-.39 3.3 1.39a.66.65 73.2 0 1-.53 1q-2.8.08-2.98 1.15c-5.54.34-8.96 6.93-3.29 9.79q.12.56-.04.84-.25.47-.71.2-4.02-2.42-4.16-7.08-.02-.57-.59-.49-1.03.15-1.29-.76 3.09-6.18 10.29-6.04Z"/><path fill="#fff" d="M299.25 209.79c-5.67-2.86-2.25-9.45 3.29-9.79l6.73-.82q.49-.06.57.43c1.05 6.59-3.53 12.5-10.59 10.18Z"/><path fill="#00118d" d="m326.46 204 .02 9.07q0 .68-.67.68h-3.37q-.68 0-.68-.68l-.01-8.26q2.61 2.2 4.71-.81Z"/></svg>